<svg xmlns="http://www.w3.org/2000/svg" width="222.822" height="70.174" viewBox="0 0 222.822 70.174"><g transform="translate(-64.884 -102.573)"><g transform="translate(64.884 102.573)"><path d="M87.535,106.562l-.285-.025c-.185-.016-.46-.032-.817-.052s-.8-.036-1.316-.043-1.114-.014-1.782,0a42.958,42.958,0,0,0-4.821.379l-.067.01.052-3.384c0-.485-1.143-.878-1.629-.878s-1.629.393-1.629.878l.061,3.965a26.355,26.355,0,0,0-3,.9,16.3,16.3,0,0,0-3.416,1.7,10.479,10.479,0,0,0-1.646,1.34,8.609,8.609,0,0,0-1.4,1.822,7.307,7.307,0,0,0-.826,2.284l-.053.3c-.015.108-.026.222-.037.333l-.016.168c0,.054-.011.118-.011.154l-.01.25,0,.126v.032c0,.112,0,.054,0,.09l0,.081.012.325c.022.217.037.436.08.652a6.225,6.225,0,0,0,.353,1.27,6.841,6.841,0,0,0,.578,1.16,8.135,8.135,0,0,0,.737,1.018,10.219,10.219,0,0,0,.834.886,19.874,19.874,0,0,0,3.755,2.7c1.447.834,2.925,1.566,4.372,2.308v0l.175,11.382c-.583.431-1.17.88-1.743,1.375a11.38,11.38,0,0,0-1.677,1.756c-.123.176-.245.353-.361.535s-.222.379-.315.585l-.135.311c-.022.052-.045.1-.065.156l-.052.164-.1.33-.024.083-.019.1-.035.191q-.033.192-.06.383c-.007.1-.01.178-.014.267l-.007.131,0,.066,0,.033a.507.507,0,0,0,0,.114l.016.313c.007.1.008.209.022.312l.041.308a5.84,5.84,0,0,0,.113.605,8.9,8.9,0,0,0,.847,2.194,17.746,17.746,0,0,0,2.516,3.4c.434.481.869.938,1.29,1.382l.278,18.077c0,.485.093.878.578.878s.578-.393.578-.878l.01-.667.01-.177c.011-.357.062-.772.112-1.264.013-.123.026-.25.039-.382s.039-.269.059-.41l.138-.9.2-.989c.077-.344.171-.7.261-1.072.214-.738.452-1.529.782-2.359s.709-1.707,1.09-2.707c.1-.243.182-.517.274-.781.045-.134.078-.28.119-.421s.082-.282.105-.436l.082-.457c.028-.153.031-.316.046-.476l.017-.242,0-.061,0-.11,0-.1,0-.1,0-.052a.427.427,0,0,0-.006-.063c-.013-.1-.029-.2-.046-.307l-.027-.154-.034-.13-.072-.259c-.054-.168-.119-.328-.183-.49s-.141-.312-.22-.458-.157-.3-.245-.432a13.853,13.853,0,0,0-1.126-1.561c-.35-.427-.711-.841-1.074-1.253l.16-10.421q-.4.275-.783.546a2.943,2.943,0,0,0-1.239,2.45l.082,5.355a14.1,14.1,0,0,1-1.715-2.567,6.663,6.663,0,0,1-.574-1.645,3.574,3.574,0,0,1-.067-.418l-.024-.209c-.009-.07,0-.14-.008-.21l-.006-.2,0-.055.01-.131c.007-.085.012-.18.02-.258.015-.045.027-.09.038-.135l.014-.068.006-.034.015-.043.06-.175.028-.088c.012-.029.028-.058.041-.087l.081-.175c.054-.117.136-.231.2-.348.079-.115.164-.229.247-.345a8.963,8.963,0,0,1,1.34-1.322c1.034-.851,2.256-1.634,3.49-2.511.618-.439,1.244-.9,1.855-1.429a12.108,12.108,0,0,0,1.745-1.81,7.283,7.283,0,0,0,1.251-2.444c.031-.115.067-.229.093-.346l.062-.354c.017-.118.045-.236.052-.355l.023-.357.01-.179,0-.089s0-.146,0-.1v-.035l-.005-.141,0-.07-.011-.118a3.952,3.952,0,0,0-.068-.453,3.727,3.727,0,0,0-.1-.4,5.11,5.11,0,0,0-.672-1.39,7.269,7.269,0,0,0-.9-1.07,13.128,13.128,0,0,0-1.973-1.568c-.787-.521-1.578-.977-2.364-1.4l.221-14.416c-.669.165-1.365.35-2.076.564a1.293,1.293,0,0,0-.922,1.255l.172,11.227c-.98-.511-1.935-1.018-2.84-1.55a17.473,17.473,0,0,1-3.193-2.293,7.207,7.207,0,0,1-.6-.644,5.24,5.24,0,0,1-.482-.669,3.878,3.878,0,0,1-.34-.684,3.267,3.267,0,0,1-.191-.7c-.025-.116-.029-.236-.044-.353l-.005-.179,0-.045c0,.007,0-.005,0-.012l0-.117.008-.251a.7.7,0,0,1,.008-.1l.01-.081.016-.163.033-.185a4.409,4.409,0,0,1,.49-1.391,6.885,6.885,0,0,1,2.086-2.245,12.393,12.393,0,0,1,1.362-.847c.47-.257.952-.487,1.436-.7a33.645,33.645,0,0,1,5.616-1.779c1.739-.406,3.288-.676,4.568-.882.64-.1,1.214-.189,1.715-.256l1.273-.166,1.056-.123.017,0a.527.527,0,0,0-.015-1.049ZM78.3,156.449c.077.107.133.213.2.319s.113.211.171.315.093.206.131.307l.049.149.025.073.011.054c.008.036.018.071.03.107a.114.114,0,0,1,.007.041l0,.052.009.1.009.1v.037l-.006.172c-.007.115,0,.227-.016.343l-.046.346a3.1,3.1,0,0,1-.068.348c-.028.117-.047.231-.081.348-.072.236-.127.464-.211.7s-.154.465-.24.7l-.248.693c-.157.438-.308.875-.446,1.3l.114-7.409C77.918,155.92,78.122,156.184,78.3,156.449Zm.66-27.268a10.394,10.394,0,0,1,1.563,1.194,3.228,3.228,0,0,1,.88,1.261,2.063,2.063,0,0,1,.063.251c0,.008,0,.012.007.022l0,.07.008.141v.009l0,.046-.005.1-.008.206a1.967,1.967,0,0,1-.028.2l-.029.2c-.013.067-.036.132-.052.2a4.541,4.541,0,0,1-.768,1.537,9.411,9.411,0,0,1-1.338,1.422c-.4.353-.827.7-1.268,1.034l.129-8.41C78.4,128.833,78.685,129,78.959,129.18Z" transform="translate(-64.884 -102.573)" fill="#fff"/></g><g transform="translate(99.424 106.636)"><path d="M228.008,159.373a5.074,5.074,0,0,1-.575,1.8l-17.524.019a3.778,3.778,0,0,1,.5-1.659c.144-.289,4.831-.726,5.334-2.1a40.461,40.461,0,0,0,.354-5.986l-.031-28.341c-4.533,9.38-18.347,38.458-18.347,38.458s-.577.073-2.745-4.108c-1.229-2.378-15.11-34.166-15.11-34.166s-.037,31.875-.038,30.937a32.577,32.577,0,0,1-.284,4.471l6.2.5v.217a5.076,5.076,0,0,1-.575,1.8l-15.072.017a4.72,4.72,0,0,1,.431-1.731c.144-.217,4.038-.581,4.541-2.169.287-1.082.285-3.173.425-6.924l-.035-31.37a11.023,11.023,0,0,0-5.265-.86l.142-1.731s1.8-.94,6.489-.944c2.38,0,4.977.5,6.854,2.8,2.239,2.738,6.071,12.109,8.385,17.731,2.748,6.7,6.508,15.93,6.508,15.93s4.317-9.308,9.425-20.13c6.835-14.5,7.771-15.8,13.107-15.808l6.779-.008a4.471,4.471,0,0,1-.431,1.659c-.144.216-4.543.654-5.046,2.241a38.694,38.694,0,0,0-.353,7.212l.03,27.043a32.577,32.577,0,0,1-.284,4.471l6.2.5Z" transform="translate(-170.102 -115.327)" fill="#fff"/><path d="M404.983,160.782a4.534,4.534,0,0,1-.575,1.731l-17.452.019a4.477,4.477,0,0,1,.431-1.659c.144-.216,4.543-.582,5.046-2.169.359-1.082.357-3.246.353-6.924.071-.793.067-4.976.061-9.88l-23.221.026.015,13.7a32.524,32.524,0,0,1-.284,4.472l6.2.5v.217a4.532,4.532,0,0,1-.575,1.731l-17.452.019a4.473,4.473,0,0,1,.431-1.659c.144-.217,4.543-.582,5.046-2.169.287-1.082.285-3.246.353-6.924.07-1.947.042-26.9.042-27.26a32.558,32.558,0,0,1,.283-4.472l-6.2-.5v-.216a4.531,4.531,0,0,1,.575-1.732l17.019-.019a4.472,4.472,0,0,1-.431,1.659c-.144.217-4.11.582-4.613,2.169-.287,1.082-.285,3.173-.353,6.924,0,.793.006,5.264-.061,10.385l23.221-.026-.016-14.207a32.554,32.554,0,0,1,.283-4.472l-6.13-.5v-.216a4.966,4.966,0,0,1,.5-1.731l17.019-.019a4.476,4.476,0,0,1-.431,1.659c-.144.217-4.11.582-4.613,2.169-.287,1.082-.285,3.173-.353,6.924,0,1.947-.042,26.827-.042,27.26a32.51,32.51,0,0,1-.284,4.471l6.2.5Z" transform="translate(-295.973 -116.72)" fill="#fff"/><path d="M524.651,161.6c-9.591.011-22-4.663-22.021-23.341-.008-7.356,4.662-23.154,24.566-23.176,7.139-.008,13.415,2,13.418,4.384,0,2.452-5.188,4.116-5.188,4.116s-3.9-4.972-11.9-4.963c-9.951.011-13.547,9.318-13.538,17.539.015,14.062,6.947,21.41,16.538,21.4a31.38,31.38,0,0,0,13.626-3.693,3.135,3.135,0,0,1-1.079,2.814C536.908,158.847,532.007,161.593,524.651,161.6Z" transform="translate(-393.471 -115.04)" fill="#fff"/><path d="M644.819,161.468c-9.591.011-22-4.663-22.021-23.341-.008-7.356,4.662-23.154,24.566-23.176,7.139-.008,13.415,2,13.418,4.384,0,2.452-5.188,4.116-5.188,4.116s-3.9-4.972-11.9-4.963c-9.952.011-13.547,9.318-13.538,17.539.015,14.062,6.947,21.411,16.538,21.4a31.382,31.382,0,0,0,13.626-3.693,3.135,3.135,0,0,1-1.079,2.814C657.076,158.714,652.175,161.46,644.819,161.468Z" transform="translate(-474.192 -114.951)" fill="#fff"/></g><g transform="translate(98.089 160.934)"><path d="M175.292,286.584c0,.42-.03.735-.03.735l1.14.135v.06a1.3,1.3,0,0,1-.105.36h-3.255a1.389,1.389,0,0,1,.09-.375c.015-.015.225-.06.45-.12.3-.09.405-.12.45-.24a6.392,6.392,0,0,0,.075-1.11c0-.33.03-4.125.03-4.185l-3.031,6.091a2.894,2.894,0,0,1-.675-.916c-.18-.33-2.536-5.175-2.536-5.175v4.741a5.775,5.775,0,0,1-.045.735l1.155.135v.06a1.3,1.3,0,0,1-.1.36h-2.865a1.394,1.394,0,0,1,.09-.375c.015-.015.225-.06.45-.12.3-.09.405-.12.45-.24a4.4,4.4,0,0,0,.076-1.05v-5.071a2.122,2.122,0,0,0-.945-.15l.015-.36a3.157,3.157,0,0,1,1.17-.15c1.171,0,1.335.405,1.905,1.635.226.48,2.011,4.245,2.011,4.245l2.25-4.576c.48-.96.69-1.215,1.53-1.215h1.35a1.523,1.523,0,0,1-.075.435s-.27.045-.42.09c-.405.105-.525.165-.54.315a9.192,9.192,0,0,0-.06,1.14Z" transform="translate(-166.036 -280.358)" fill="#fff"/><path d="M208.684,284.17a4.1,4.1,0,0,1-.825,2.415,3.925,3.925,0,0,1-3.2,1.5,4.057,4.057,0,0,1-2.506-.81,3.552,3.552,0,0,1-1.215-2.956,3.774,3.774,0,0,1,4.1-3.87,4,4,0,0,1,2.566.915A3.569,3.569,0,0,1,208.684,284.17Zm-1.32.105c-.03-1.7-.81-3.165-2.775-3.165-1.665,0-2.37,1.35-2.37,2.91,0,.96.3,3.39,2.805,3.39a3.241,3.241,0,0,0,1.1-.2C207.349,286.511,207.364,284.305,207.364,284.276Z" transform="translate(-189.484 -280.42)" fill="#fff"/><path d="M233.824,287.92a1.516,1.516,0,0,1-1.14-.555c-.645-.765-4.381-5.6-4.381-5.6v4.846c0,.42-.03.735-.03.735l1.14.135v.06a1.3,1.3,0,0,1-.1.36h-2.865a1.382,1.382,0,0,1,.09-.375c.015-.015.225-.06.45-.12.3-.09.435-.135.48-.255a5.092,5.092,0,0,0,.075-1.02c0-.09-.015-3.931-.015-5.026a3.283,3.283,0,0,0-1.005-.165l.045-.405a3.646,3.646,0,0,1,1.185-.135c.915,0,1.261.465,1.875,1.245.135.18.81,1.02,1.545,1.98.63.84,1.35,1.7,1.875,2.37v-4.186c0-.42.03-.735.03-.735l-1.1-.135v-.06a1.3,1.3,0,0,1,.105-.36h2.835a1.4,1.4,0,0,1-.09.375c-.015.015-.255.06-.48.12-.3.09-.405.12-.45.24a5.313,5.313,0,0,0-.075,1.035Z" transform="translate(-206.613 -280.389)" fill="#fff"/><path d="M258.69,286.646c0,.42-.03.735-.03.735l1.14.135v.06a1.276,1.276,0,0,1-.105.36H256.44a1.4,1.4,0,0,1,.09-.375c.015-.015.225-.06.45-.12.3-.09.405-.12.45-.24a6.439,6.439,0,0,0,.075-1.11c0-.33.015-4.951.015-5.011a7.237,7.237,0,0,0-1.515.12,13.942,13.942,0,0,0-1.23,1.185l-.225-.1.345-1.8s.78.045,1.575.045h3.316c.8,0,1.575-.075,1.575-.075l.36,1.83-.24.1a12.093,12.093,0,0,0-1.23-1.185,6.6,6.6,0,0,0-1.56-.12Z" transform="translate(-225.493 -280.42)" fill="#fff"/><path d="M284.158,280.77l.315,1.725-.285.12a8.951,8.951,0,0,0-.975-1.05,8.5,8.5,0,0,0-2-.21h-.15v2.79h.645a15.418,15.418,0,0,0,2.31-.105.671.671,0,0,1,.015.165c0,.525-.69.57-1.4.57-.12,0-1.23-.015-1.576-.015v2.04a3.8,3.8,0,0,1-.06.705,7.926,7.926,0,0,0,1.14.075,2.439,2.439,0,0,0,1.47-.315,8.071,8.071,0,0,0,.99-1.275l.33.135-.45,2.025h-5.671a1.38,1.38,0,0,1,.09-.375c.015-.015.225-.06.45-.12.3-.09.405-.12.45-.24a6.325,6.325,0,0,0,.075-1.11c0-.33.015-4.185.015-4.246,0-.42.03-.735.03-.735l-1.1-.135v-.06a1.282,1.282,0,0,1,.1-.36Z" transform="translate(-241.794 -280.635)" fill="#fff"/><path d="M304.131,280.4c1.051,0,2.146.3,2.146.78,0,.405-.48.81-.48.81a3.477,3.477,0,0,0-2.25-.855c-.705,0-1.306.36-1.306,1.005,0,.825.9,1.2,1.875,1.59,1.14.465,2.4.945,2.4,2.22,0,.885-.81,2.085-3.06,2.085-1.455,0-2.475-.6-2.475-1.155s.735-.84.735-.84a2.36,2.36,0,0,0,2.13,1.365c1.08,0,1.575-.45,1.575-1.14,0-.825-.915-1.155-1.905-1.53-1.125-.42-2.341-.9-2.341-2.235C301.176,281.319,302.391,280.4,304.131,280.4Z" transform="translate(-256.683 -280.389)" fill="#fff"/><path d="M339.607,281.325l-1.1-.135v-.06a1.3,1.3,0,0,1,.1-.36h3.255a1.381,1.381,0,0,1-.09.375c-.015.015-.255.06-.48.12-.3.09-.4.12-.45.24a6.4,6.4,0,0,0-.075,1.11c0,.315-.03,4.186-.03,4.246,0,.42-.03.735-.03.735l1.14.135v.06a1.282,1.282,0,0,1-.1.36H338.5a1.407,1.407,0,0,1,.09-.375c.015-.015.225-.06.45-.12.3-.09.405-.12.45-.24a5.109,5.109,0,0,0,.075-1.11v-1.515h-4.05c-.015,1.035-.015,2.04-.015,2.07,0,.42-.03.735-.03.735l1.14.135v.06a1.3,1.3,0,0,1-.105.36h-3.255a1.4,1.4,0,0,1,.09-.375c.015-.015.225-.06.45-.12.3-.09.405-.12.45-.24a6.376,6.376,0,0,0,.075-1.11c0-.33.015-4.185.015-4.246,0-.42.03-.735.03-.735l-1.1-.135v-.06a1.3,1.3,0,0,1,.105-.36h3.256a1.4,1.4,0,0,1-.09.375c-.015.015-.255.06-.48.12-.3.09-.405.12-.45.24a6.376,6.376,0,0,0-.075,1.11c0,.135,0,.81-.015,1.575h4.05c0-1.05.015-2.1.015-2.13C339.577,281.64,339.607,281.325,339.607,281.325Z" transform="translate(-278.356 -280.635)" fill="#fff"/><path d="M369.075,280.77l.315,1.725-.285.12a8.971,8.971,0,0,0-.975-1.05,8.5,8.5,0,0,0-2-.21h-.15v2.79h.645a15.41,15.41,0,0,0,2.31-.105.672.672,0,0,1,.015.165c0,.525-.69.57-1.4.57-.12,0-1.23-.015-1.575-.015v2.04a3.774,3.774,0,0,1-.06.705,7.932,7.932,0,0,0,1.14.075,2.441,2.441,0,0,0,1.471-.315,8.085,8.085,0,0,0,.99-1.275l.33.135-.45,2.025h-5.671a1.394,1.394,0,0,1,.09-.375c.015-.015.225-.06.45-.12.3-.09.405-.12.45-.24a6.392,6.392,0,0,0,.075-1.11c0-.33.015-4.185.015-4.246,0-.42.03-.735.03-.735l-1.1-.135v-.06a1.289,1.289,0,0,1,.105-.36Z" transform="translate(-298.836 -280.635)" fill="#fff"/><path d="M391.912,288.058h-3.2a1.213,1.213,0,0,1,.135-.435h.015l.855-.09s-.09-.21-.255-.63c-.015-.03-.24-.54-.51-1.23h-2.85c-.075.18-.72,1.68-.93,2.026a.909.909,0,0,1-.885.525c-.135,0-.465-.075-.54-.21a4.974,4.974,0,0,0,.915-1.32c1.23-2.341,2.565-5.806,2.565-5.806l1-.255c.315.75,1.7,4.4,2.266,5.641.285.615.405.87.51,1.05a4.506,4.506,0,0,0,.99.33v.03A1.934,1.934,0,0,1,391.912,288.058Zm-5.551-2.985h2.355c-.525-1.305-1.2-3.06-1.2-3.06S386.932,283.632,386.361,285.073Z" transform="translate(-312.282 -280.542)" fill="#fff"/><path d="M413.316,287.506a7.926,7.926,0,0,0,1.14.075,2.241,2.241,0,0,0,1.41-.315,8.049,8.049,0,0,0,.99-1.275l.33.135-.45,2.025h-5.611a1.389,1.389,0,0,1,.09-.375c.015-.015.225-.06.45-.12.3-.09.405-.12.45-.24a6.36,6.36,0,0,0,.075-1.11c0-.33.015-4.185.015-4.246,0-.42.03-.735.03-.735l-1.1-.135v-.06a1.289,1.289,0,0,1,.105-.36h3.286a1.4,1.4,0,0,1-.09.375c-.015.015-.255.045-.48.105-.3.09-.435.135-.48.255a6.41,6.41,0,0,0-.075,1.11c0,.315-.03,4.126-.03,4.186A3.8,3.8,0,0,1,413.316,287.506Z" transform="translate(-330.67 -280.635)" fill="#fff"/><path d="M431.49,286.646c0,.42-.03.735-.03.735l1.14.135v.06a1.288,1.288,0,0,1-.105.36h-3.255a1.408,1.408,0,0,1,.09-.375c.015-.015.226-.06.45-.12.3-.09.405-.12.45-.24a6.439,6.439,0,0,0,.075-1.11c0-.33.015-4.951.015-5.011a7.237,7.237,0,0,0-1.515.12,13.94,13.94,0,0,0-1.23,1.185l-.225-.1.345-1.8s.78.045,1.575.045h3.316c.8,0,1.575-.075,1.575-.075l.36,1.83-.24.1a12.09,12.09,0,0,0-1.23-1.185,6.6,6.6,0,0,0-1.56-.12Z" transform="translate(-341.568 -280.42)" fill="#fff"/><path d="M457.155,281.325l-1.1-.135v-.06a1.294,1.294,0,0,1,.1-.36h3.255a1.382,1.382,0,0,1-.09.375c-.015.015-.255.06-.48.12-.3.09-.4.12-.45.24a6.4,6.4,0,0,0-.075,1.11c0,.315-.03,4.186-.03,4.246,0,.42-.03.735-.03.735l1.14.135v.06a1.283,1.283,0,0,1-.1.36h-3.255a1.405,1.405,0,0,1,.09-.375c.015-.015.225-.06.45-.12.3-.09.405-.12.45-.24a5.114,5.114,0,0,0,.075-1.11v-1.515h-4.05c-.015,1.035-.015,2.04-.015,2.07,0,.42-.03.735-.03.735l1.14.135v.06a1.3,1.3,0,0,1-.105.36h-3.255a1.4,1.4,0,0,1,.09-.375c.015-.015.225-.06.45-.12.3-.09.405-.12.45-.24a6.371,6.371,0,0,0,.075-1.11c0-.33.015-4.185.015-4.246,0-.42.03-.735.03-.735l-1.1-.135v-.06a1.3,1.3,0,0,1,.105-.36h3.256a1.4,1.4,0,0,1-.09.375c-.015.015-.255.06-.48.12-.3.09-.405.12-.45.24a6.381,6.381,0,0,0-.075,1.11c0,.135,0,.81-.015,1.575h4.05c0-1.05.015-2.1.015-2.13C457.125,281.64,457.155,281.325,457.155,281.325Z" transform="translate(-357.317 -280.635)" fill="#fff"/><path d="M485.906,287.041c0,.652-1.555,1.2-2.65,1.2-1.747,0-3.835-.755-3.835-3.79,0-1.377.74-3.746,4.293-3.746,1.273,0,2.147.37,2.147.755s-.666.8-.666.8a3.068,3.068,0,0,0-2.132-.874c-1.732,0-2.324,1.392-2.324,2.724,0,1.806.755,3.405,2.887,3.405a3.572,3.572,0,0,0,2.251-.755A1.283,1.283,0,0,1,485.906,287.041Z" transform="translate(-376.546 -280.59)" fill="#fff"/><path d="M509.878,288.058h-3.2a1.218,1.218,0,0,1,.135-.435h.015l.855-.09s-.09-.21-.255-.63c-.015-.03-.24-.54-.51-1.23h-2.85c-.075.18-.72,1.68-.93,2.026a.908.908,0,0,1-.885.525c-.135,0-.465-.075-.54-.21a4.969,4.969,0,0,0,.915-1.32c1.23-2.341,2.566-5.806,2.566-5.806l1-.255c.315.75,1.7,4.4,2.266,5.641.285.615.405.87.51,1.05a4.5,4.5,0,0,0,.99.33v.03A1.934,1.934,0,0,1,509.878,288.058Zm-5.551-2.985h2.355c-.525-1.305-1.2-3.06-1.2-3.06S504.9,283.632,504.327,285.073Z" transform="translate(-391.523 -280.542)" fill="#fff"/><path d="M531.372,280.739s.195-.015.525-.015c.975,0,3.2.165,3.2,1.875,0,1.215-1.576,1.95-1.576,1.95a16.962,16.962,0,0,0,1.756,2.386,2.423,2.423,0,0,0,1.77.825h.03l.03.36a4.507,4.507,0,0,1-1.125.24c-.945,0-1.6-.12-3.5-3.27-.09-.135-.255-.465-.255-.465a2.313,2.313,0,0,0,1.53-1.95c0-.48-.225-1.38-1.935-1.38-.24,0-.465.015-.465.015v5.521c0,.42-.03.735-.03.735l1.125.135v.06a1.3,1.3,0,0,1-.105.36h-3.255a1.4,1.4,0,0,1,.09-.375c.015-.015.225-.06.45-.12.3-.09.4-.12.45-.24a6.388,6.388,0,0,0,.075-1.11c0-.33.015-4.185.015-4.246,0-.42.03-.735.03-.735l-1.1-.135v-.06a1.289,1.289,0,0,1,.1-.36Z" transform="translate(-409.911 -280.604)" fill="#fff"/><path d="M561.076,280.77l.315,1.725-.285.12a8.954,8.954,0,0,0-.975-1.05,8.5,8.5,0,0,0-2-.21h-.15v2.79h.645a15.418,15.418,0,0,0,2.31-.105.669.669,0,0,1,.015.165c0,.525-.69.57-1.4.57-.12,0-1.23-.015-1.576-.015v2.04a3.8,3.8,0,0,1-.06.705,7.926,7.926,0,0,0,1.14.075,2.439,2.439,0,0,0,1.47-.315,8.074,8.074,0,0,0,.99-1.275l.33.135-.45,2.025h-5.671a1.38,1.38,0,0,1,.09-.375c.015-.015.225-.06.45-.12.3-.09.405-.12.45-.24a6.33,6.33,0,0,0,.075-1.11c0-.33.015-4.185.015-4.246,0-.42.03-.735.03-.735l-1.1-.135v-.06a1.285,1.285,0,0,1,.1-.36Z" transform="translate(-427.809 -280.635)" fill="#fff"/><path d="M595.759,286.825c0,.66-1.575,1.215-2.685,1.215-1.77,0-3.886-.765-3.886-3.841,0-1.4.75-3.8,4.351-3.8,1.29,0,2.176.375,2.176.765,0,.405-.676.81-.676.81a3.108,3.108,0,0,0-2.16-.885c-1.755,0-2.356,1.41-2.356,2.761,0,1.83.766,3.45,2.926,3.45a3.62,3.62,0,0,0,2.28-.765A1.3,1.3,0,0,1,595.759,286.825Z" transform="translate(-450.28 -280.389)" fill="#fff"/><path d="M620.329,284.17a4.1,4.1,0,0,1-.825,2.415,3.926,3.926,0,0,1-3.2,1.5,4.057,4.057,0,0,1-2.505-.81,3.551,3.551,0,0,1-1.215-2.956,3.775,3.775,0,0,1,4.1-3.87,4,4,0,0,1,2.565.915A3.568,3.568,0,0,1,620.329,284.17Zm-1.321.105c-.03-1.7-.81-3.165-2.776-3.165-1.665,0-2.37,1.35-2.37,2.91,0,.96.3,3.39,2.805,3.39a3.242,3.242,0,0,0,1.1-.2C618.993,286.511,619.008,284.305,619.008,284.276Z" transform="translate(-465.998 -280.42)" fill="#fff"/><path d="M640.278,287.506a7.923,7.923,0,0,0,1.14.075,2.242,2.242,0,0,0,1.411-.315,8.071,8.071,0,0,0,.99-1.275l.33.135-.45,2.025h-5.611a1.4,1.4,0,0,1,.09-.375c.015-.015.225-.06.45-.12.3-.09.405-.12.45-.24a6.388,6.388,0,0,0,.075-1.11c0-.33.015-4.185.015-4.246,0-.42.03-.735.03-.735l-1.1-.135v-.06a1.289,1.289,0,0,1,.1-.36h3.285a1.394,1.394,0,0,1-.09.375c-.015.015-.255.045-.48.105-.3.09-.435.135-.48.255a6.376,6.376,0,0,0-.075,1.11c0,.315-.03,4.126-.03,4.186A3.8,3.8,0,0,1,640.278,287.506Z" transform="translate(-483.127 -280.635)" fill="#fff"/><path d="M660.845,287.506a7.923,7.923,0,0,0,1.14.075,2.24,2.24,0,0,0,1.41-.315,8.052,8.052,0,0,0,.99-1.275l.33.135-.45,2.025h-5.611a1.4,1.4,0,0,1,.09-.375c.015-.015.225-.06.45-.12.3-.09.405-.12.45-.24a6.388,6.388,0,0,0,.075-1.11c0-.33.015-4.185.015-4.246,0-.42.03-.735.03-.735l-1.1-.135v-.06a1.289,1.289,0,0,1,.1-.36h3.285a1.386,1.386,0,0,1-.09.375c-.014.015-.255.045-.48.105-.3.09-.435.135-.48.255a6.451,6.451,0,0,0-.075,1.11c0,.315-.03,4.126-.03,4.186A3.8,3.8,0,0,1,660.845,287.506Z" transform="translate(-496.942 -280.635)" fill="#fff"/><path d="M684.561,280.77l.315,1.725-.285.12a8.968,8.968,0,0,0-.975-1.05,8.5,8.5,0,0,0-2-.21h-.15v2.79h.645a15.41,15.41,0,0,0,2.31-.105.669.669,0,0,1,.015.165c0,.525-.69.57-1.4.57-.12,0-1.23-.015-1.575-.015v2.04a3.78,3.78,0,0,1-.06.705,7.925,7.925,0,0,0,1.14.075,2.438,2.438,0,0,0,1.47-.315,8.071,8.071,0,0,0,.99-1.275l.33.135-.45,2.025H679.22a1.392,1.392,0,0,1,.09-.375c.015-.015.225-.06.45-.12.3-.09.405-.12.45-.24a6.4,6.4,0,0,0,.075-1.11c0-.33.015-4.185.015-4.246,0-.42.03-.735.03-.735l-1.1-.135v-.06a1.275,1.275,0,0,1,.105-.36Z" transform="translate(-510.757 -280.635)" fill="#fff"/><path d="M707.252,287.4a14.032,14.032,0,0,1-2.9.645c-1.77,0-3.886-.765-3.886-3.841,0-1.4.81-3.8,4.411-3.8,1.29,0,2.325.375,2.325.765,0,.405-.675.81-.675.81a3.727,3.727,0,0,0-2.31-.885c-1.755,0-2.416,1.41-2.416,2.761,0,2.34,1.2,3.435,2.88,3.45a4.282,4.282,0,0,0,1.365-.21c0-.66-.014-1.335-.014-1.38,0-.42.03-.72.03-.72L705,284.86v-.06a1.3,1.3,0,0,1,.1-.36h3.151a1.4,1.4,0,0,1-.09.375c-.015.015-.21.06-.435.12-.3.09-.375.12-.42.24a5.491,5.491,0,0,0-.075,1.05C707.237,286.42,707.237,286.66,707.252,287.4Z" transform="translate(-525.032 -280.389)" fill="#fff"/><path d="M730.354,280.77l.315,1.725-.285.12a8.941,8.941,0,0,0-.975-1.05,8.5,8.5,0,0,0-2-.21h-.15v2.79h.645a15.418,15.418,0,0,0,2.31-.105.686.686,0,0,1,.015.165c0,.525-.69.57-1.4.57-.12,0-1.23-.015-1.575-.015v2.04a3.8,3.8,0,0,1-.06.705,7.925,7.925,0,0,0,1.14.075,2.44,2.44,0,0,0,1.471-.315,8.083,8.083,0,0,0,.99-1.275l.33.135-.45,2.025h-5.671a1.4,1.4,0,0,1,.09-.375c.015-.015.225-.06.45-.12.3-.09.405-.12.45-.24a6.388,6.388,0,0,0,.075-1.11c0-.33.015-4.185.015-4.246,0-.42.03-.735.03-.735l-1.1-.135v-.06a1.289,1.289,0,0,1,.105-.36Z" transform="translate(-541.518 -280.635)" fill="#fff"/></g></g></svg>